<?xml version="1.0" encoding="iso-8859-1"?>
<!-- Generator: Adobe Illustrator 19.0.0, SVG Export Plug-In . SVG Version: 6.00 Build 0)  -->
<svg version="1.1" id="Layer_1" xmlns="http://www.w3.org/2000/svg" xmlns:xlink="http://www.w3.org/1999/xlink" x="0px" y="0px"
	 viewBox="0 0 512.355 512.355" style="enable-background:new 0 0 512.355 512.355;" xml:space="preserve">
<g transform="translate(1 1)">
	<g>
		<path d="M508.76,419.871l-34.133-34.133c-1.707-1.707-3.413-2.56-5.973-2.56h-22.187l4.267-14.507c1.707-3.413,0-6.827-2.56-9.387
			l-42.667-34.133c-1.707-0.853-3.413-1.707-5.12-1.707h-64.853L288.6,276.511l6.827-6.827c3.413-3.413,3.413-8.533,0-11.947
			c-3.413-3.413-8.533-3.413-11.947,0l-6.827,6.827l-22.187-22.187L396.89,99.954c7.821,3.766,11.801,6.514,12.03,6.743l3.413,1.707
			l0.853,0.853c42.667,17.92,64,10.24,82.773,0.853c7.68-3.413,13.653-11.093,14.507-19.627c0.853-7.68-2.56-16.213-8.533-22.187
			c-7.68-6.827-18.773-8.533-28.16-4.267c-8.533,4.267-14.507,6.827-37.547-2.56C419.16,51.231,332.12,17.097,243.373,26.484
			c-0.787,0-66.201,7.989-133.946,70.854L82.093,70.004c-0.34-0.34-0.701-0.636-1.071-0.909
			c13.864-12.265,30.311-21.799,48.858-28.105c3.413-0.853,5.973-5.12,5.973-8.533c0-3.413-2.56-6.827-6.827-7.68L9.56-0.823
			c-2.56,0-5.12,0.853-7.68,2.56s-3.413,5.12-2.56,7.68l25.6,119.467c0.853,4.267,4.267,6.827,8.533,6.827
			c3.413,0,6.827-2.56,7.68-5.973c6.306-18.547,15.84-34.994,28.105-48.858c0.272,0.37,0.569,0.731,0.909,1.071l27.194,27.194
			c-1.67,1.713-3.34,3.449-5.007,5.233c-66.56,63.147-70.827,125.44-70.827,142.507C14.68,367.817,42.84,424.137,55.64,443.764
			c8.533,19.627,6.827,22.187,3.413,28.16l-0.853,0.853c-5.12,9.387-3.413,20.48,3.413,28.16l2.56,2.56
			c5.12,5.12,11.093,7.68,17.92,7.68c0.853,0,1.707,0,2.56,0c7.68-0.853,13.653-5.12,17.92-11.093
			c11.093-17.92,18.773-35.84,0-79.36l-0.853-1.707c0,0-3.584-5.078-8.233-15.661L242.52,254.324l22.187,22.187l-6.827,6.827
			c-3.413,3.413-3.413,8.533,0,11.947c1.707,1.707,3.413,2.56,5.973,2.56s4.267-0.853,5.973-2.56l6.827-6.827l46.636,46.636
			l-4.822,64.298c0,1.707,0.853,4.267,2.56,5.973l47.787,52.053c2.56,2.56,5.973,3.413,9.387,2.56l13.653-5.12v22.187
			c0,2.56,0.853,4.267,2.56,5.973l25.6,25.6c1.707,1.707,3.413,2.56,5.973,2.56c0.853,0,1.707,0,2.56-0.853
			c3.413-0.853,5.973-3.413,5.973-6.827l6.353-50.821l19.247,19.247v22.187c0,5.12,3.413,8.533,8.533,8.533s8.533-3.413,8.533-8.533
			v-17.067h17.067c5.12,0,8.533-3.413,8.533-8.533s-3.413-8.533-8.533-8.533h-22.187l-19.247-19.247l50.821-6.353
			c3.413-0.853,5.973-2.56,6.827-5.973C512.173,425.844,511.32,422.431,508.76,419.871z M36.013,99.017L18.947,18.804L99.16,35.871
			C71.853,50.377,50.52,71.711,36.013,99.017z M242.52,230.431l-22.187-22.187l6.827-6.827c3.413-3.413,3.413-8.533,0-11.947
			s-8.533-3.413-11.947,0l-6.827,6.827l-61.431-61.431c48.913-47.158,91.636-57.225,98.124-58.036
			c63.952-3.966,108.601,6.468,134.963,16.077L242.52,230.431z M245.08,43.551c9.387-0.853,19.627-1.707,29.013-1.707
			c75.093,0,142.507,27.307,152.747,34.133l3.413,1.707c28.16,11.093,39.253,8.533,52.053,2.56c3.413-0.853,6.827-0.853,9.387,1.707
			c1.707,1.707,2.56,5.12,2.56,7.68c-0.853,3.413-2.56,5.12-5.12,6.827c-16.213,7.68-33.28,13.653-68.267-1.707l-2.56-1.707
			c-2.56-1.707-58.88-39.253-174.933-32.427l-8.533,1.707c-16.921,4.029-56.67,18.725-99.845,60.582l-13.211-13.211
			C183.841,52.186,244.297,43.551,245.08,43.551z M88.067,491.551c-1.707,1.707-4.267,2.56-5.12,2.56
			c-2.56,0-4.267-0.853-5.973-2.56l-2.56-2.56c-1.707-2.56-2.56-5.12-0.853-7.68l0.853-0.853c5.973-11.093,7.68-18.773-2.56-44.373
			L71,434.377c-9.387-13.653-38.4-66.56-31.573-177.493v-0.853c-0.853-15.36,3.413-71.68,65.707-129.707
			c1.523-1.639,3.049-3.235,4.576-4.811l13.164,13.164c-62.294,58.344-66.38,115.516-66.38,121.354
			c-6.827,111.787,25.6,164.693,30.72,172.373C103.427,466.804,95.747,479.604,88.067,491.551z M86.913,386.038
			c-8.581-26.166-17.029-68.5-13.353-129.154c0-2.499,2.45-54.585,61.28-110.24l61.6,61.6l-6.827,6.827
			c-3.413,3.413-3.413,8.533,0,11.947c1.707,1.707,3.413,2.56,5.973,2.56s4.267-0.853,5.973-2.56l6.827-6.827l22.187,22.187
			L86.913,386.038z M420.013,484.724l-11.093-11.093v-30.72c0-2.56-2.56-5.12-5.12-6.827c-2.56-1.707-5.12-1.707-7.68-0.853
			l-19.627,7.68l-40.96-45.227l3.496-46.85l18.294,18.294c0.113,0.353,0.244,0.693,0.397,1.018v30.099
			c0,5.12,3.413,8.533,8.533,8.533s8.533-3.413,8.533-8.533v-13.653l50.754,50.754L420.013,484.724z M437.487,425.398
			l-50.754-50.754h13.653c5.12,0,8.533-3.413,8.533-8.533s-3.413-8.533-8.533-8.533h-30.099c-0.325-0.153-0.665-0.284-1.018-0.397
			l-16.67-16.67h44.373l36.693,29.013l-6.827,19.627c-0.853,2.56-0.853,5.12,0.853,7.68c1.707,1.707,4.267,3.413,6.827,3.413h30.72
			l19.627,19.627L437.487,425.398z"/>
	</g>
</g>
<g>
</g>
<g>
</g>
<g>
</g>
<g>
</g>
<g>
</g>
<g>
</g>
<g>
</g>
<g>
</g>
<g>
</g>
<g>
</g>
<g>
</g>
<g>
</g>
<g>
</g>
<g>
</g>
<g>
</g>
</svg>
