<svg xmlns="http://www.w3.org/2000/svg" viewBox="0 0 64 64"><path d="M9.472 31.662a.5.5 0 0 0 .007.937 4.6 4.6 0 0 0 1.582.28 4.494 4.494 0 0 0 4.049-2.573 4.4 4.4 0 0 0 .44-1.927 4.494 4.494 0 0 0-4.489-4.489 4.389 4.389 0 0 0-1.591.293.5.5 0 0 0 0 .934 3.511 3.511 0 0 1 2.266 3.262 3.412 3.412 0 0 1-.343 1.5A3.48 3.48 0 0 1 9.472 31.662zm1.59-6.772a3.493 3.493 0 0 1 3.488 3.489 3.516 3.516 0 0 1-3.477 3.5A4.453 4.453 0 0 0 12.3 30.306a4.4 4.4 0 0 0 .439-1.927A4.5 4.5 0 0 0 11.062 24.89zM9.891 36.473h15.45a1 1 0 0 0 0-2H9.891a1 1 0 1 0 0 2zM9.891 40.327h15.45a1 1 0 1 0 0-2H9.891a1 1 0 1 0 0 2zM26.341 43.182a1 1 0 0 0-1-1H9.891a1 1 0 1 0 0 2h15.45A1 1 0 0 0 26.341 43.182zM31.591 36.473H42.048a1 1 0 0 0 0-2H31.591a1 1 0 1 0 0 2zM31.493 40.327h11.9a1.005 1.005 0 0 0 0-2h-11.9a1.005 1.005 0 0 0 0 2zM31.591 44.182h8.433a1 1 0 0 0 0-2H31.591a1 1 0 1 0 0 2zM31.591 32.619h7.724a1 1 0 0 0 0-2H31.591a1 1 0 0 0 0 2zM8.1 11.446A2.772 2.772 0 0 1 10.512 14.5c0 .015 0 .029 0 .043a1 1 0 0 0 .957 1h.044a1 1 0 0 0 1-.958 3.162 3.162 0 0 1 .869-2.089 2.344 2.344 0 0 1 1.79-.746 1 1 0 0 0 1.042-.957c0-.014 0-.028 0-.043a1 1 0 0 0-.957-1A2.771 2.771 0 0 1 12.84 6.7c0-.014 0-.029 0-.043a1 1 0 0 0-.957-1 1.02 1.02 0 0 0-1.042.956A3.164 3.164 0 0 1 9.973 8.7a2.318 2.318 0 0 1-1.79.745 1.009 1.009 0 0 0-1.042.957c0 .014 0 .029 0 .043A1 1 0 0 0 8.1 11.446zM11.4 10.1c.109-.112.211-.228.309-.349a4.73 4.73 0 0 0 .763.879 4.841 4.841 0 0 0-.529.468q-.162.166-.308.348a4.8 4.8 0 0 0-.763-.879A4.719 4.719 0 0 0 11.4 10.1zM61.063 24.094a3.149 3.149 0 0 1-2.752-3.464c0-.014 0-.029 0-.044a1 1 0 0 0-.958-1 1.013 1.013 0 0 0-1.042.957 3.585 3.585 0 0 1-.984 2.365 2.7 2.7 0 0 1-2.046.85 1.008 1.008 0 0 0-1.042.956c0 .015 0 .03 0 .044a1 1 0 0 0 .957 1 3.149 3.149 0 0 1 2.753 3.464c0 .014 0 .028 0 .043a1 1 0 0 0 .957 1h.044a1 1 0 0 0 1-.957 3.582 3.582 0 0 1 .985-2.365 2.692 2.692 0 0 1 2.046-.85 1.008 1.008 0 0 0 1.042-.956c0-.015 0-.03 0-.044A1 1 0 0 0 61.063 24.094zM57.5 25.545a5.376 5.376 0 0 0-.419.485 5.153 5.153 0 0 0-.992-1.146 5.171 5.171 0 0 0 .669-.577 5.376 5.376 0 0 0 .419-.485 5.153 5.153 0 0 0 .992 1.146A5.094 5.094 0 0 0 57.5 25.545z"/><path d="M54.2,47.188V33.27a4.973,4.973,0,0,0-3.04-4.553V21.3a1,1,0,0,0-.4-.8,18.261,18.261,0,0,0-2.292-1.473,17.483,17.483,0,0,0-2.922-1.3,19.005,19.005,0,0,0-17.086,2.358A19.152,19.152,0,0,0,6.168,20.5a1,1,0,0,0-.4.8v7.3A4.977,4.977,0,0,0,2.44,33.27V56.31a4.935,4.935,0,0,0,4.93,4.93h41.9a4.932,4.932,0,0,0,4.512-2.958,2.4,2.4,0,0,0,2.43.356,2.4,2.4,0,0,0,1.327-1.288,2.429,2.429,0,0,0,.018-1.886ZM7.77,29.38V21.808a17.157,17.157,0,0,1,19.7,0V55.3a18.917,18.917,0,0,0-17.361-1.215A19.123,19.123,0,0,0,7.77,55.3ZM24.8,56.157H10.423a16.92,16.92,0,0,1,5.492-1.525c.1-.01.2-.029.3-.037.216-.018.432-.019.649-.028s.46-.029.691-.03c.1,0,.192.009.288.011A16.952,16.952,0,0,1,24.8,56.157ZM27.57,59.24H7.37a2.933,2.933,0,0,1-2.93-2.93V33.27a2.959,2.959,0,0,1,1.33-2.455V57.18h0a.971.971,0,0,0,.958.99c.014,0,.027.01.042.01s.025-.006.038-.006a1.073,1.073,0,0,0,.148-.02l.016,0h20.6ZM51.16,31.033A2.953,2.953,0,0,1,52.2,33.27v8.981l-1.04-2.566ZM29.47,24.817V21.809A17.018,17.018,0,0,1,44.9,19.617a15.535,15.535,0,0,1,2.609,1.163,16.366,16.366,0,0,1,1.654,1.028V34.756L43.725,21.35a2.442,2.442,0,0,0-4.511-.014,2.4,2.4,0,0,0-.011,1.85l3.222,7.95a.846.846,0,0,0,.028.08L49.16,47.755V55.3q-.567-.343-1.15-.645c-.223-.115-.451-.215-.677-.321-.168-.079-.334-.165-.5-.238-.247-.107-.5-.2-.749-.3-.152-.059-.3-.125-.457-.179-.27-.1-.544-.176-.817-.259-.137-.042-.272-.091-.409-.129-.276-.077-.554-.139-.832-.2-.138-.032-.275-.071-.414-.1-.27-.056-.543-.1-.815-.141-.148-.024-.3-.056-.443-.076-.263-.036-.527-.057-.791-.082-.159-.016-.318-.038-.477-.049-.256-.018-.512-.021-.769-.028-.168,0-.335-.017-.5-.017h-.035c-.269,0-.538.015-.808.027-.141.006-.282.005-.422.014-.284.018-.567.052-.85.083-.137.016-.275.024-.413.042-.279.037-.557.09-.835.14-.14.025-.28.042-.42.07-.275.056-.548.127-.822.2-.14.035-.28.062-.419.1-.276.076-.55.167-.823.255-.134.043-.269.079-.4.125-.273.095-.542.206-.811.314-.131.052-.264.1-.394.152-.3.13-.605.276-.9.422-.091.045-.184.082-.274.128q-.583.3-1.151.636a.554.554,0,0,0,0-.135V42.766q0-7.344-.1-14.69Zm15.684,5.506a.452.452,0,0,1-.271.371.463.463,0,0,1-.166.03.419.419,0,0,1-.086-.015.267.267,0,0,1-.153-.063.416.416,0,0,1-.062-.041.5.5,0,0,1-.054-.066.509.509,0,0,1-.054-.08l0-.006L41.055,22.43a.415.415,0,0,1,0-.32.441.441,0,0,1,.814,0l3.25,8.019v0l0,0a.376.376,0,0,1,.022.143C45.147,30.29,45.155,30.309,45.154,30.323Zm1.378,25.849H32.1A16.894,16.894,0,0,1,46.532,56.172Zm5.668.138a2.933,2.933,0,0,1-2.93,2.93H29.57V58.172H50.107c.018,0,.035.008.053.008a1,1,0,0,0,1-1V52.689l1.04,2.566Zm3.5.249a.4.4,0,0,1-.227.22l-.016.006a.434.434,0,0,1-.338,0,.424.424,0,0,1-.234-.228l-3.8-9.37-1.159-2.857L45.2,32.676a2.478,2.478,0,0,0,.429-.128h0l.005,0a2.449,2.449,0,0,0,.384-.2L55.7,56.215A.443.443,0,0,1,55.7,56.559Z"/></svg>