<?xml version="1.0" encoding="iso-8859-1"?>
<!-- Generator: Adobe Illustrator 19.0.0, SVG Export Plug-In . SVG Version: 6.00 Build 0)  -->
<svg version="1.1" id="Capa_1" xmlns="http://www.w3.org/2000/svg" xmlns:xlink="http://www.w3.org/1999/xlink" x="0px" y="0px"
	 viewBox="0 0 512 512" style="enable-background:new 0 0 512 512;" xml:space="preserve">
<g>
	<g>
		<circle cx="435.984" cy="15.029" r="14.999"/>
	</g>
</g>
<g>
	<g>
		<circle cx="15.02" cy="165.019" r="14.999"/>
	</g>
</g>
<g>
	<g>
		<path d="M383.98,163.468c0.86-4.248,1.651-8.542,2.365-12.872c5.755-34.883,6.183-68.83,1.206-95.586
			c-7.534-40.503-24.789-51.952-37.939-54.425c-26.279-4.942-46.548,22.406-58.492,46.443c-10.871,21.88-19.595,50.105-24.802,81.68
			c-1.188,7.198-2.153,14.392-2.891,21.517c-4.945-0.27-9.907-0.27-14.853,0c-0.737-7.125-1.703-14.319-2.891-21.517
			c-5.288-32.058-14.199-60.663-25.303-82.68c-11.873-23.54-31.965-50.339-57.992-45.443c-13.149,2.473-30.405,13.922-37.939,54.425
			c-4.977,26.756-4.549,60.703,1.206,95.586c0.714,4.33,1.505,8.625,2.365,12.872C47.539,181.754,0.016,215.479,0.016,255.015
			c0,41.86,51.038,68.037,90.994,81.366c0,5.341,0,113.053,0,117.778c0,21.074,14.539,39.171,35.356,44.009
			C165.304,507.217,210.132,512,256,512s90.695-4.783,129.634-13.832c20.817-4.838,35.356-22.936,35.356-44.009
			c0-4.876,0-112.516,0-117.778c39.957-13.329,90.995-39.506,90.995-81.366C511.985,215.479,464.462,181.754,383.98,163.468z
			 M153.941,60.494c4.374-23.514,11.751-30.008,13.991-30.429c4.444-0.83,13.592,7.57,23.072,24.902
			c9.491,17.353,19.315,43.66,25.081,78.621c1.899,11.515,3.179,22.997,3.803,34.127c0.503,8.971,8.744,15.501,17.601,13.928
			c12.126-2.156,24.897-2.156,37.023,0c8.848,1.573,17.097-4.95,17.601-13.928c0.624-11.129,1.903-22.612,3.803-34.126
			c5.439-32.969,14.483-58.238,23.454-75.562c10.05-19.41,20.009-28.845,24.699-27.961c2.24,0.421,9.617,6.916,13.991,30.429
			c4.356,23.42,3.891,53.684-1.312,85.219c-3.795,23.006-9.84,44.778-17.483,62.965c-2.034,4.84-1.39,10.39,1.699,14.636
			c7.229,9.935,12.668,21.147,16.03,32.932c-22.055,6.967-55.286,13.768-100.994,13.768s-78.939-6.802-100.995-13.768
			c3.363-11.785,8.801-22.997,16.031-32.931c3.089-4.245,3.733-9.795,1.7-14.635c-7.645-18.191-13.69-39.965-17.484-62.966
			C150.051,114.179,149.585,83.913,153.941,60.494z M390.992,454.158c0,7.046-4.996,13.127-12.148,14.79
			c-36.746,8.539-79.224,13.053-122.844,13.053s-86.098-4.514-122.844-13.053c-7.153-1.663-12.148-7.745-12.148-14.79v-49.275
			c40.168,9.91,86.371,15.121,134.992,15.121s94.824-5.211,134.992-15.121V454.158z M390.992,373.92
			c-39.107,10.403-86.534,16.087-134.992,16.087s-95.885-5.684-134.992-16.087v-28.941c40.008,9.778,86.52,15.029,134.992,15.029
			s94.984-5.251,134.992-15.029V373.92z M256,330.009c-134.936,0-225.986-41.432-225.986-74.995
			c0-19.184,33.055-46.15,105.242-62.43c2.071,6.958,4.33,13.677,6.768,20.076c-6.379,10.049-11.405,20.943-14.939,32.291
			c-2.212-1.162-3.813-2.099-4.808-2.711c-7.057-4.341-16.294-2.139-20.635,4.917c-4.341,7.056-2.139,16.294,4.917,20.634
			c23.419,14.406,73.82,32.222,149.442,32.222c73.404,0,124.557-16.914,149.442-32.222c7.056-4.341,9.257-13.578,4.917-20.634
			c-4.34-7.055-13.578-9.258-20.635-4.917c-0.996,0.612-2.596,1.55-4.808,2.711c-3.534-11.347-8.56-22.242-14.939-32.291
			c2.438-6.399,4.698-13.118,6.768-20.076c72.187,16.28,105.242,43.245,105.242,62.43C481.987,288.589,390.915,330.009,256,330.009z
			"/>
	</g>
</g>
<g>
	<g>
		<path d="M496.986,90.025h-15.999V75.026c0-8.284-6.716-14.999-14.999-14.999c-8.284,0-14.999,6.716-14.999,14.999v14.999h-14.999
			c-8.283,0-14.999,6.716-14.999,14.999s6.716,14.999,14.999,14.999h14.999v14.999c0,8.284,6.716,14.999,14.999,14.999
			c8.283,0,14.999-6.716,14.999-14.999v-14.999h15.999c8.284,0,14.999-6.716,14.999-14.999S505.269,90.025,496.986,90.025z"/>
	</g>
</g>
<g>
	<g>
		<path d="M75.011,30.029H60.012V15.03c0-8.284-6.716-14.999-14.999-14.999S30.014,6.746,30.014,15.03v14.999H15.015
			c-8.284,0-14.999,6.716-14.999,14.999s6.716,14.999,14.999,14.999h14.999v14.999c0,8.284,6.716,14.999,14.999,14.999
			s14.999-6.716,14.999-14.999V60.027h14.999c8.284,0,14.999-6.716,14.999-14.999S83.295,30.029,75.011,30.029z"/>
	</g>
</g>
<g>
</g>
<g>
</g>
<g>
</g>
<g>
</g>
<g>
</g>
<g>
</g>
<g>
</g>
<g>
</g>
<g>
</g>
<g>
</g>
<g>
</g>
<g>
</g>
<g>
</g>
<g>
</g>
<g>
</g>
</svg>
