<svg xmlns="http://www.w3.org/2000/svg" xmlns:xlink="http://www.w3.org/1999/xlink" version="1.1" x="0px" y="0px" viewBox="0 0 100 125" enable-background="new 0 0 100 100" xml:space="preserve"><g><title>Layer 1</title><path fill="#000000" d="M73.185,25.296c1.73,0,3.287-0.734,4.389-1.902c1.016-1.08,1.643-2.529,1.643-4.129   c0-3.331-2.7-6.031-6.031-6.031c-3.07,0-5.6,2.296-5.977,5.264c-0.032,0.251-0.055,0.506-0.055,0.767   C67.153,22.596,69.854,25.296,73.185,25.296z"/><path fill="#000000" stroke="#000000" stroke-miterlimit="10" d="M94.221,4.167L79.054,4.333L87.888,10l-2.993,11.989l-6.437,1.957   c-1.312,1.393-3.167,2.267-5.229,2.267c-3.969,0-7.188-3.218-7.188-7.188c0-0.311,0.026-0.614,0.064-0.915L65.221,14.5L60.893,21   l2.078,8.417c-1.339,2.108-3.289,4.716-5.768,7.773c0.269,1.047,0.733,2.556,0.784,4.252c4.452-5.05,7.359-8.218,8.976-9.646   l12.556-0.891l11.983-5.042l5.393-9.75L94.221,4.167z"/><path fill="#000000" stroke="#000000" stroke-miterlimit="10" d="M40.938,55.943C28.125,71.625,28.125,71.625,2.913,97.032   c-1.027,0.552,6.249-0.042,8.089-1.919C33.875,68,33.125,68.5,43.238,58.401C42.341,58.056,41.391,56.883,40.938,55.943z"/><path fill="#000000" stroke="#000000" stroke-miterlimit="10" d="M55.982,38.607c-0.125-0.488-0.227-0.793-0.227-0.793   c-3.588,5.612-10.766,14.058-13.945,15.753c-0.246,0.131-0.155,0.625,0.127,1.211c0.453,0.939,1.403,2.111,2.3,2.457   c0.434,0.168,0.854,0.148,1.195-0.199c1.576-2.49,10.662-12.526,10.662-12.526c0.146-0.385,0.239-0.801,0.298-1.227   C56.631,41.563,56.251,39.654,55.982,38.607z"/></g><text x="0" y="115" fill="#000000" font-size="5px" font-weight="bold" font-family="'Helvetica Neue', Helvetica, Arial-Unicode, Arial, Sans-serif"></text><text x="0" y="120" fill="#000000" font-size="5px" font-weight="bold" font-family="'Helvetica Neue', Helvetica, Arial-Unicode, Arial, Sans-serif"></text></svg>
